<?xml version="1.0" encoding="UTF-8" standalone="no"?>
<!DOCTYPE svg PUBLIC "-//W3C//DTD SVG 1.1//EN"
 "http://www.w3.org/Graphics/SVG/1.1/DTD/svg11.dtd">
<!-- Generated by graphviz version 2.26.3 (20100126.1600)
 -->
<!-- Title: G Pages: 1 -->
<svg width="338pt" height="746pt"
 viewBox="0.00 0.00 338.00 746.00" xmlns="http://www.w3.org/2000/svg" xmlns:xlink="http://www.w3.org/1999/xlink">
<g id="graph1" class="graph" transform="scale(1 1) rotate(0) translate(4 742)">
<title>G</title>
<polygon fill="white" stroke="white" points="-4,5 -4,-742 335,-742 335,5 -4,5"/>
<g id="graph2" class="cluster"><title>cluster_global</title>
<polyline fill="none" stroke="gray" points="200,-8 310,-8 "/>
<path fill="none" stroke="gray" d="M310,-8C316,-8 322,-14 322,-20"/>
<polyline fill="none" stroke="gray" points="322,-20 322,-718 "/>
<path fill="none" stroke="gray" d="M322,-718C322,-724 316,-730 310,-730"/>
<polyline fill="none" stroke="gray" points="310,-730 200,-730 "/>
<path fill="none" stroke="gray" d="M200,-730C194,-730 188,-724 188,-718"/>
<polyline fill="none" stroke="gray" points="188,-718 188,-20 "/>
<path fill="none" stroke="gray" d="M188,-20C188,-14 194,-8 200,-8"/>
<text text-anchor="middle" x="255" y="-716.1" font-family="Times Roman,serif" font-size="11.00" fill="gray">global</text>
</g>
<!-- \\Jaf_Db_SQLite -->
<g id="node2" class="node"><title>\\Jaf_Db_SQLite</title>
<a xlink:href="Db.Sqlite.html" xlink:title="Jaf_Db_SQLite" target="_parent">
<polygon fill="none" stroke="black" points="307,-700 203,-700 203,-664 307,-664 307,-700"/>
<text text-anchor="middle" x="255" y="-679.1" font-family="Courier,monospace" font-size="11.00">Jaf_Db_SQLite</text>
</a>
</g>
<!-- \\Jaf_Controller -->
<g id="node3" class="node"><title>\\Jaf_Controller</title>
<a xlink:href="Controller.html" xlink:title="Jaf_Controller" target="_parent">
<polygon fill="none" stroke="black" points="310,-646 200,-646 200,-610 310,-610 310,-646"/>
<text text-anchor="middle" x="255" y="-625.1" font-family="Courier,monospace" font-size="11.00">Jaf_Controller</text>
</a>
</g>
<!-- \\Jaf_Model -->
<g id="node4" class="node"><title>\\Jaf_Model</title>
<a xlink:href="Model.html" xlink:title="Jaf_Model" target="_parent">
<polygon fill="none" stroke="black" points="293,-592 217,-592 217,-556 293,-556 293,-592"/>
<text text-anchor="middle" x="255" y="-571.1" font-family="Courier,monospace" font-size="11.00">Jaf_Model</text>
</a>
</g>
<!-- \\Jaf_Loader -->
<g id="node5" class="node"><title>\\Jaf_Loader</title>
<a xlink:href="Loader.html" xlink:title="Jaf_Loader" target="_parent">
<polygon fill="none" stroke="black" points="297,-538 213,-538 213,-502 297,-502 297,-538"/>
<text text-anchor="middle" x="255" y="-517.1" font-family="Courier,monospace" font-size="11.00">Jaf_Loader</text>
</a>
</g>
<!-- \\Jaf_Response -->
<g id="node6" class="node"><title>\\Jaf_Response</title>
<a xlink:href="Response.html" xlink:title="Jaf_Response" target="_parent">
<polygon fill="none" stroke="black" points="304,-484 206,-484 206,-448 304,-448 304,-484"/>
<text text-anchor="middle" x="255" y="-463.1" font-family="Courier,monospace" font-size="11.00">Jaf_Response</text>
</a>
</g>
<!-- \\Jaf_View -->
<g id="node7" class="node"><title>\\Jaf_View</title>
<a xlink:href="View.html" xlink:title="Jaf_View" target="_parent">
<polygon fill="none" stroke="black" points="290,-430 220,-430 220,-394 290,-394 290,-430"/>
<text text-anchor="middle" x="255" y="-409.1" font-family="Courier,monospace" font-size="11.00">Jaf_View</text>
</a>
</g>
<!-- \\Jaf_Application -->
<g id="node8" class="node"><title>\\Jaf_Application</title>
<a xlink:href="Application.html" xlink:title="Jaf_Application" target="_parent">
<polygon fill="none" stroke="black" points="314,-376 196,-376 196,-340 314,-340 314,-376"/>
<text text-anchor="middle" x="255" y="-355.1" font-family="Courier,monospace" font-size="11.00">Jaf_Application</text>
</a>
</g>
<!-- \\Jaf_Config -->
<g id="node9" class="node"><title>\\Jaf_Config</title>
<a xlink:href="Config.html" xlink:title="Jaf_Config" target="_parent">
<polygon fill="none" stroke="black" points="297,-322 213,-322 213,-286 297,-286 297,-322"/>
<text text-anchor="middle" x="255" y="-301.1" font-family="Courier,monospace" font-size="11.00">Jaf_Config</text>
</a>
</g>
<!-- \\Jaf_Request -->
<g id="node10" class="node"><title>\\Jaf_Request</title>
<a xlink:href="Request.html" xlink:title="Jaf_Request" target="_parent">
<polygon fill="none" stroke="black" points="300,-268 210,-268 210,-232 300,-232 300,-268"/>
<text text-anchor="middle" x="255" y="-247.1" font-family="Courier,monospace" font-size="11.00">Jaf_Request</text>
</a>
</g>
<!-- \\Jaf_Collection -->
<g id="node11" class="node"><title>\\Jaf_Collection</title>
<a xlink:href="Collection.html" xlink:title="Jaf_Collection" target="_parent">
<polygon fill="none" stroke="black" points="310,-214 200,-214 200,-178 310,-178 310,-214"/>
<text text-anchor="middle" x="255" y="-193.1" font-family="Courier,monospace" font-size="11.00">Jaf_Collection</text>
</a>
</g>
<!-- \\Jaf_Exception -->
<g id="node12" class="node"><title>\\Jaf_Exception</title>
<a xlink:href="Exception.html" xlink:title="Jaf_Exception" target="_parent">
<polygon fill="none" stroke="black" points="307,-160 203,-160 203,-124 307,-124 307,-160"/>
<text text-anchor="middle" x="255" y="-139.1" font-family="Courier,monospace" font-size="11.00">Jaf_Exception</text>
</a>
</g>
<!-- \\Exception -->
<g id="node16" class="node"><title>\\Exception</title>
<ellipse fill="none" stroke="black" cx="62" cy="-142" rx="61.8445" ry="18"/>
<text text-anchor="middle" x="62" y="-137.9" font-family="Times Roman,serif" font-size="14.00" fill="gray">\Exception</text>
</g>
<!-- \\Jaf_Exception&#45;&gt;\\Exception -->
<g id="edge3" class="edge"><title>\\Jaf_Exception&#45;&gt;\\Exception</title>
<path fill="none" stroke="black" d="M202.771,-142C181.764,-142 157.182,-142 134.492,-142"/>
<polygon fill="none" stroke="black" points="134.219,-138.5 124.219,-142 134.219,-145.5 134.219,-138.5"/>
</g>
<!-- \\Jaf_Registry -->
<g id="node13" class="node"><title>\\Jaf_Registry</title>
<a xlink:href="Registry.html" xlink:title="Jaf_Registry" target="_parent">
<polygon fill="none" stroke="black" points="304,-106 206,-106 206,-70 304,-70 304,-106"/>
<text text-anchor="middle" x="255" y="-85.1" font-family="Courier,monospace" font-size="11.00">Jaf_Registry</text>
</a>
</g>
<!-- \\Jaf_Db -->
<g id="node14" class="node"><title>\\Jaf_Db</title>
<a xlink:href="Db.html" xlink:title="Jaf_Db" target="_parent">
<polygon fill="none" stroke="black" points="283,-52 227,-52 227,-16 283,-16 283,-52"/>
<text text-anchor="middle" x="255" y="-31.1" font-family="Courier,monospace" font-size="11.00">Jaf_Db</text>
</a>
</g>
</g>
</svg>
